<mxfile host="app.diagrams.net" modified="2022-03-28T09:57:06.434Z" agent="5.0 (Windows NT 10.0; Win64; x64) AppleWebKit/537.36 (KHTML, like Gecko) Chrome/99.0.4844.82 Safari/537.36" etag="wFQijGBMgbKLNRB_xGLR" version="17.2.4" type="github">
  <diagram id="C5RBs43oDa-KdzZeNtuy" name="Page-1">
    <mxGraphModel dx="1221" dy="578" grid="1" gridSize="10" guides="1" tooltips="1" connect="1" arrows="1" fold="1" page="1" pageScale="1" pageWidth="827" pageHeight="1169" math="0" shadow="0">
      <root>
        <mxCell id="WIyWlLk6GJQsqaUBKTNV-0" />
        <mxCell id="WIyWlLk6GJQsqaUBKTNV-1" parent="WIyWlLk6GJQsqaUBKTNV-0" />
        <mxCell id="Oq-YT1y8umLdVVFn6O6l-15" style="edgeStyle=orthogonalEdgeStyle;rounded=0;orthogonalLoop=1;jettySize=auto;html=1;exitX=0.5;exitY=1;exitDx=0;exitDy=0;" edge="1" parent="WIyWlLk6GJQsqaUBKTNV-1" source="Oq-YT1y8umLdVVFn6O6l-0" target="Oq-YT1y8umLdVVFn6O6l-2">
          <mxGeometry relative="1" as="geometry" />
        </mxCell>
        <mxCell id="Oq-YT1y8umLdVVFn6O6l-0" value="开始" style="rounded=0;whiteSpace=wrap;html=1;fillColor=#f5f5f5;fontColor=#333333;strokeColor=#666666;" vertex="1" parent="WIyWlLk6GJQsqaUBKTNV-1">
          <mxGeometry x="280" y="200" width="80" height="40" as="geometry" />
        </mxCell>
        <mxCell id="Oq-YT1y8umLdVVFn6O6l-16" style="edgeStyle=orthogonalEdgeStyle;rounded=0;orthogonalLoop=1;jettySize=auto;html=1;exitX=1;exitY=0.5;exitDx=0;exitDy=0;entryX=0;entryY=0.5;entryDx=0;entryDy=0;" edge="1" parent="WIyWlLk6GJQsqaUBKTNV-1" source="Oq-YT1y8umLdVVFn6O6l-2" target="Oq-YT1y8umLdVVFn6O6l-4">
          <mxGeometry relative="1" as="geometry" />
        </mxCell>
        <mxCell id="Oq-YT1y8umLdVVFn6O6l-2" value="权限分派" style="rounded=0;whiteSpace=wrap;html=1;fillColor=#fff2cc;strokeColor=#d6b656;" vertex="1" parent="WIyWlLk6GJQsqaUBKTNV-1">
          <mxGeometry x="40" y="320" width="80" height="40" as="geometry" />
        </mxCell>
        <mxCell id="Oq-YT1y8umLdVVFn6O6l-17" style="edgeStyle=orthogonalEdgeStyle;rounded=0;orthogonalLoop=1;jettySize=auto;html=1;exitX=1;exitY=0.5;exitDx=0;exitDy=0;" edge="1" parent="WIyWlLk6GJQsqaUBKTNV-1" source="Oq-YT1y8umLdVVFn6O6l-4" target="Oq-YT1y8umLdVVFn6O6l-5">
          <mxGeometry relative="1" as="geometry" />
        </mxCell>
        <mxCell id="Oq-YT1y8umLdVVFn6O6l-4" value="自动拨号联系举报人" style="rounded=0;whiteSpace=wrap;html=1;fillColor=#fff2cc;strokeColor=#d6b656;" vertex="1" parent="WIyWlLk6GJQsqaUBKTNV-1">
          <mxGeometry x="200" y="320" width="80" height="40" as="geometry" />
        </mxCell>
        <mxCell id="Oq-YT1y8umLdVVFn6O6l-18" value="" style="edgeStyle=orthogonalEdgeStyle;rounded=0;orthogonalLoop=1;jettySize=auto;html=1;" edge="1" parent="WIyWlLk6GJQsqaUBKTNV-1" source="Oq-YT1y8umLdVVFn6O6l-5" target="Oq-YT1y8umLdVVFn6O6l-8">
          <mxGeometry relative="1" as="geometry" />
        </mxCell>
        <mxCell id="Oq-YT1y8umLdVVFn6O6l-5" value="举报人预约时间" style="rounded=0;whiteSpace=wrap;html=1;fillColor=#fff2cc;strokeColor=#d6b656;" vertex="1" parent="WIyWlLk6GJQsqaUBKTNV-1">
          <mxGeometry x="360" y="320" width="80" height="40" as="geometry" />
        </mxCell>
        <mxCell id="Oq-YT1y8umLdVVFn6O6l-19" style="edgeStyle=orthogonalEdgeStyle;rounded=0;orthogonalLoop=1;jettySize=auto;html=1;exitX=0.5;exitY=1;exitDx=0;exitDy=0;" edge="1" parent="WIyWlLk6GJQsqaUBKTNV-1" source="Oq-YT1y8umLdVVFn6O6l-8" target="Oq-YT1y8umLdVVFn6O6l-9">
          <mxGeometry relative="1" as="geometry" />
        </mxCell>
        <mxCell id="Oq-YT1y8umLdVVFn6O6l-8" value="通信系统" style="shape=process;whiteSpace=wrap;html=1;backgroundOutline=1;fillColor=#f8cecc;strokeColor=#b85450;" vertex="1" parent="WIyWlLk6GJQsqaUBKTNV-1">
          <mxGeometry x="520" y="320" width="80" height="40" as="geometry" />
        </mxCell>
        <mxCell id="Oq-YT1y8umLdVVFn6O6l-20" value="" style="edgeStyle=orthogonalEdgeStyle;rounded=0;orthogonalLoop=1;jettySize=auto;html=1;" edge="1" parent="WIyWlLk6GJQsqaUBKTNV-1" source="Oq-YT1y8umLdVVFn6O6l-9" target="Oq-YT1y8umLdVVFn6O6l-10">
          <mxGeometry relative="1" as="geometry" />
        </mxCell>
        <mxCell id="Oq-YT1y8umLdVVFn6O6l-9" value="通信内容" style="shape=parallelogram;perimeter=parallelogramPerimeter;whiteSpace=wrap;html=1;fixedSize=1;fillColor=#b0e3e6;strokeColor=#0e8088;" vertex="1" parent="WIyWlLk6GJQsqaUBKTNV-1">
          <mxGeometry x="40" y="400" width="80" height="40" as="geometry" />
        </mxCell>
        <mxCell id="Oq-YT1y8umLdVVFn6O6l-21" value="" style="edgeStyle=orthogonalEdgeStyle;rounded=0;orthogonalLoop=1;jettySize=auto;html=1;" edge="1" parent="WIyWlLk6GJQsqaUBKTNV-1" source="Oq-YT1y8umLdVVFn6O6l-10" target="Oq-YT1y8umLdVVFn6O6l-11">
          <mxGeometry relative="1" as="geometry" />
        </mxCell>
        <mxCell id="Oq-YT1y8umLdVVFn6O6l-10" value="承办人员签名" style="rounded=0;whiteSpace=wrap;html=1;fillColor=#fff2cc;strokeColor=#d6b656;" vertex="1" parent="WIyWlLk6GJQsqaUBKTNV-1">
          <mxGeometry x="200" y="400" width="80" height="40" as="geometry" />
        </mxCell>
        <mxCell id="Oq-YT1y8umLdVVFn6O6l-22" value="" style="edgeStyle=orthogonalEdgeStyle;rounded=0;orthogonalLoop=1;jettySize=auto;html=1;" edge="1" parent="WIyWlLk6GJQsqaUBKTNV-1" source="Oq-YT1y8umLdVVFn6O6l-11" target="Oq-YT1y8umLdVVFn6O6l-12">
          <mxGeometry relative="1" as="geometry" />
        </mxCell>
        <mxCell id="Oq-YT1y8umLdVVFn6O6l-11" value="举报人确认" style="rounded=0;whiteSpace=wrap;html=1;fillColor=#fff2cc;strokeColor=#d6b656;" vertex="1" parent="WIyWlLk6GJQsqaUBKTNV-1">
          <mxGeometry x="360" y="400" width="80" height="40" as="geometry" />
        </mxCell>
        <mxCell id="Oq-YT1y8umLdVVFn6O6l-23" style="edgeStyle=orthogonalEdgeStyle;rounded=0;orthogonalLoop=1;jettySize=auto;html=1;exitX=0.5;exitY=1;exitDx=0;exitDy=0;entryX=0.5;entryY=0;entryDx=0;entryDy=0;" edge="1" parent="WIyWlLk6GJQsqaUBKTNV-1" source="Oq-YT1y8umLdVVFn6O6l-12" target="Oq-YT1y8umLdVVFn6O6l-13">
          <mxGeometry relative="1" as="geometry" />
        </mxCell>
        <mxCell id="Oq-YT1y8umLdVVFn6O6l-12" value="加密" style="rounded=0;whiteSpace=wrap;html=1;fillColor=#fff2cc;strokeColor=#d6b656;" vertex="1" parent="WIyWlLk6GJQsqaUBKTNV-1">
          <mxGeometry x="520" y="400" width="80" height="40" as="geometry" />
        </mxCell>
        <mxCell id="Oq-YT1y8umLdVVFn6O6l-24" value="" style="edgeStyle=orthogonalEdgeStyle;rounded=0;orthogonalLoop=1;jettySize=auto;html=1;" edge="1" parent="WIyWlLk6GJQsqaUBKTNV-1" source="Oq-YT1y8umLdVVFn6O6l-13" target="Oq-YT1y8umLdVVFn6O6l-14">
          <mxGeometry relative="1" as="geometry" />
        </mxCell>
        <mxCell id="Oq-YT1y8umLdVVFn6O6l-13" value="上链" style="rounded=0;whiteSpace=wrap;html=1;fillColor=#fff2cc;strokeColor=#d6b656;" vertex="1" parent="WIyWlLk6GJQsqaUBKTNV-1">
          <mxGeometry x="280" y="520" width="80" height="40" as="geometry" />
        </mxCell>
        <mxCell id="Oq-YT1y8umLdVVFn6O6l-14" value="结束" style="rounded=0;whiteSpace=wrap;html=1;fillColor=#f5f5f5;fontColor=#333333;strokeColor=#666666;" vertex="1" parent="WIyWlLk6GJQsqaUBKTNV-1">
          <mxGeometry x="280" y="600" width="80" height="40" as="geometry" />
        </mxCell>
        <mxCell id="Oq-YT1y8umLdVVFn6O6l-31" value="" style="edgeStyle=orthogonalEdgeStyle;rounded=0;orthogonalLoop=1;jettySize=auto;html=1;" edge="1" parent="WIyWlLk6GJQsqaUBKTNV-1" source="Oq-YT1y8umLdVVFn6O6l-26" target="Oq-YT1y8umLdVVFn6O6l-27">
          <mxGeometry relative="1" as="geometry" />
        </mxCell>
        <mxCell id="Oq-YT1y8umLdVVFn6O6l-26" value="开始" style="rounded=0;whiteSpace=wrap;html=1;fillColor=#f5f5f5;fontColor=#333333;strokeColor=#666666;" vertex="1" parent="WIyWlLk6GJQsqaUBKTNV-1">
          <mxGeometry x="280" y="720" width="80" height="40" as="geometry" />
        </mxCell>
        <mxCell id="Oq-YT1y8umLdVVFn6O6l-32" value="" style="edgeStyle=orthogonalEdgeStyle;rounded=0;orthogonalLoop=1;jettySize=auto;html=1;" edge="1" parent="WIyWlLk6GJQsqaUBKTNV-1" source="Oq-YT1y8umLdVVFn6O6l-27" target="Oq-YT1y8umLdVVFn6O6l-29">
          <mxGeometry relative="1" as="geometry" />
        </mxCell>
        <mxCell id="Oq-YT1y8umLdVVFn6O6l-65" style="edgeStyle=orthogonalEdgeStyle;rounded=0;orthogonalLoop=1;jettySize=auto;html=1;exitX=0;exitY=0.75;exitDx=0;exitDy=0;entryX=0.4;entryY=0.1;entryDx=0;entryDy=0;entryPerimeter=0;shape=flexArrow;" edge="1" parent="WIyWlLk6GJQsqaUBKTNV-1" source="Oq-YT1y8umLdVVFn6O6l-27" target="Oq-YT1y8umLdVVFn6O6l-63">
          <mxGeometry relative="1" as="geometry" />
        </mxCell>
        <mxCell id="Oq-YT1y8umLdVVFn6O6l-27" value="承办人员申请群签名" style="rounded=0;whiteSpace=wrap;html=1;fillColor=#fff2cc;strokeColor=#d6b656;" vertex="1" parent="WIyWlLk6GJQsqaUBKTNV-1">
          <mxGeometry x="270" y="790" width="100" height="40" as="geometry" />
        </mxCell>
        <mxCell id="Oq-YT1y8umLdVVFn6O6l-36" value="" style="edgeStyle=orthogonalEdgeStyle;rounded=0;orthogonalLoop=1;jettySize=auto;html=1;" edge="1" parent="WIyWlLk6GJQsqaUBKTNV-1" source="Oq-YT1y8umLdVVFn6O6l-28" target="Oq-YT1y8umLdVVFn6O6l-30">
          <mxGeometry relative="1" as="geometry" />
        </mxCell>
        <mxCell id="Oq-YT1y8umLdVVFn6O6l-64" style="edgeStyle=orthogonalEdgeStyle;rounded=0;orthogonalLoop=1;jettySize=auto;html=1;entryX=0.625;entryY=0.2;entryDx=0;entryDy=0;entryPerimeter=0;shape=flexArrow;" edge="1" parent="WIyWlLk6GJQsqaUBKTNV-1" source="Oq-YT1y8umLdVVFn6O6l-28" target="Oq-YT1y8umLdVVFn6O6l-63">
          <mxGeometry relative="1" as="geometry" />
        </mxCell>
        <mxCell id="Oq-YT1y8umLdVVFn6O6l-28" value="举报人验证群签名" style="rounded=0;whiteSpace=wrap;html=1;fillColor=#fff2cc;strokeColor=#d6b656;" vertex="1" parent="WIyWlLk6GJQsqaUBKTNV-1">
          <mxGeometry x="270" y="930" width="100" height="40" as="geometry" />
        </mxCell>
        <mxCell id="Oq-YT1y8umLdVVFn6O6l-35" style="edgeStyle=orthogonalEdgeStyle;rounded=0;orthogonalLoop=1;jettySize=auto;html=1;exitX=0.5;exitY=1;exitDx=0;exitDy=0;entryX=0.5;entryY=0;entryDx=0;entryDy=0;" edge="1" parent="WIyWlLk6GJQsqaUBKTNV-1" source="Oq-YT1y8umLdVVFn6O6l-29" target="Oq-YT1y8umLdVVFn6O6l-28">
          <mxGeometry relative="1" as="geometry" />
        </mxCell>
        <mxCell id="Oq-YT1y8umLdVVFn6O6l-29" value="承办人员发起通信" style="rounded=0;whiteSpace=wrap;html=1;fillColor=#fff2cc;strokeColor=#d6b656;" vertex="1" parent="WIyWlLk6GJQsqaUBKTNV-1">
          <mxGeometry x="270" y="860" width="100" height="40" as="geometry" />
        </mxCell>
        <mxCell id="Oq-YT1y8umLdVVFn6O6l-52" style="edgeStyle=orthogonalEdgeStyle;rounded=0;orthogonalLoop=1;jettySize=auto;html=1;entryX=0;entryY=0.5;entryDx=0;entryDy=0;" edge="1" parent="WIyWlLk6GJQsqaUBKTNV-1" source="Oq-YT1y8umLdVVFn6O6l-30" target="Oq-YT1y8umLdVVFn6O6l-37">
          <mxGeometry relative="1" as="geometry" />
        </mxCell>
        <mxCell id="Oq-YT1y8umLdVVFn6O6l-54" style="edgeStyle=orthogonalEdgeStyle;rounded=0;orthogonalLoop=1;jettySize=auto;html=1;exitX=0.5;exitY=1;exitDx=0;exitDy=0;entryX=0.5;entryY=0;entryDx=0;entryDy=0;" edge="1" parent="WIyWlLk6GJQsqaUBKTNV-1" source="Oq-YT1y8umLdVVFn6O6l-30" target="Oq-YT1y8umLdVVFn6O6l-40">
          <mxGeometry relative="1" as="geometry" />
        </mxCell>
        <mxCell id="Oq-YT1y8umLdVVFn6O6l-30" value="签名合法？" style="rhombus;whiteSpace=wrap;html=1;fillColor=#f8cecc;strokeColor=#b85450;" vertex="1" parent="WIyWlLk6GJQsqaUBKTNV-1">
          <mxGeometry x="275" y="990" width="90" height="50" as="geometry" />
        </mxCell>
        <mxCell id="Oq-YT1y8umLdVVFn6O6l-39" style="edgeStyle=orthogonalEdgeStyle;rounded=0;orthogonalLoop=1;jettySize=auto;html=1;exitX=0.5;exitY=0;exitDx=0;exitDy=0;entryX=1;entryY=0.5;entryDx=0;entryDy=0;" edge="1" parent="WIyWlLk6GJQsqaUBKTNV-1" source="Oq-YT1y8umLdVVFn6O6l-37" target="Oq-YT1y8umLdVVFn6O6l-28">
          <mxGeometry relative="1" as="geometry" />
        </mxCell>
        <mxCell id="Oq-YT1y8umLdVVFn6O6l-37" value="等待新的通信请求" style="rounded=0;whiteSpace=wrap;html=1;fillColor=#fff2cc;strokeColor=#d6b656;" vertex="1" parent="WIyWlLk6GJQsqaUBKTNV-1">
          <mxGeometry x="414" y="995" width="100" height="40" as="geometry" />
        </mxCell>
        <mxCell id="Oq-YT1y8umLdVVFn6O6l-43" style="edgeStyle=orthogonalEdgeStyle;rounded=0;orthogonalLoop=1;jettySize=auto;html=1;exitX=0.5;exitY=1;exitDx=0;exitDy=0;entryX=0.5;entryY=0;entryDx=0;entryDy=0;" edge="1" parent="WIyWlLk6GJQsqaUBKTNV-1" source="Oq-YT1y8umLdVVFn6O6l-40" target="Oq-YT1y8umLdVVFn6O6l-42">
          <mxGeometry relative="1" as="geometry" />
        </mxCell>
        <mxCell id="Oq-YT1y8umLdVVFn6O6l-40" value="加密通信" style="rounded=0;whiteSpace=wrap;html=1;fillColor=#fff2cc;strokeColor=#d6b656;" vertex="1" parent="WIyWlLk6GJQsqaUBKTNV-1">
          <mxGeometry x="270" y="1070" width="100" height="40" as="geometry" />
        </mxCell>
        <mxCell id="Oq-YT1y8umLdVVFn6O6l-46" style="edgeStyle=orthogonalEdgeStyle;rounded=0;orthogonalLoop=1;jettySize=auto;html=1;exitX=1;exitY=0.5;exitDx=0;exitDy=0;entryX=0;entryY=0.5;entryDx=0;entryDy=0;" edge="1" parent="WIyWlLk6GJQsqaUBKTNV-1" source="Oq-YT1y8umLdVVFn6O6l-42" target="Oq-YT1y8umLdVVFn6O6l-44">
          <mxGeometry relative="1" as="geometry" />
        </mxCell>
        <mxCell id="Oq-YT1y8umLdVVFn6O6l-56" value="" style="edgeStyle=orthogonalEdgeStyle;rounded=0;orthogonalLoop=1;jettySize=auto;html=1;" edge="1" parent="WIyWlLk6GJQsqaUBKTNV-1" source="Oq-YT1y8umLdVVFn6O6l-42" target="Oq-YT1y8umLdVVFn6O6l-55">
          <mxGeometry relative="1" as="geometry" />
        </mxCell>
        <mxCell id="Oq-YT1y8umLdVVFn6O6l-42" value="存在非法签名的记录？" style="rhombus;whiteSpace=wrap;html=1;fillColor=#f8cecc;strokeColor=#b85450;" vertex="1" parent="WIyWlLk6GJQsqaUBKTNV-1">
          <mxGeometry x="245" y="1145" width="150" height="70" as="geometry" />
        </mxCell>
        <mxCell id="Oq-YT1y8umLdVVFn6O6l-44" value="主管开启群签名，追责" style="rounded=0;whiteSpace=wrap;html=1;fillColor=#fff2cc;strokeColor=#d6b656;" vertex="1" parent="WIyWlLk6GJQsqaUBKTNV-1">
          <mxGeometry x="434" y="1160" width="80" height="40" as="geometry" />
        </mxCell>
        <mxCell id="Oq-YT1y8umLdVVFn6O6l-49" value="否" style="text;html=1;strokeColor=none;fillColor=none;align=center;verticalAlign=middle;whiteSpace=wrap;rounded=0;" vertex="1" parent="WIyWlLk6GJQsqaUBKTNV-1">
          <mxGeometry x="354" y="990" width="60" height="30" as="geometry" />
        </mxCell>
        <mxCell id="Oq-YT1y8umLdVVFn6O6l-50" value="是" style="text;html=1;strokeColor=none;fillColor=none;align=center;verticalAlign=middle;whiteSpace=wrap;rounded=0;" vertex="1" parent="WIyWlLk6GJQsqaUBKTNV-1">
          <mxGeometry x="384" y="1150" width="60" height="30" as="geometry" />
        </mxCell>
        <mxCell id="Oq-YT1y8umLdVVFn6O6l-58" value="" style="edgeStyle=orthogonalEdgeStyle;rounded=0;orthogonalLoop=1;jettySize=auto;html=1;" edge="1" parent="WIyWlLk6GJQsqaUBKTNV-1" source="Oq-YT1y8umLdVVFn6O6l-55" target="Oq-YT1y8umLdVVFn6O6l-57">
          <mxGeometry relative="1" as="geometry" />
        </mxCell>
        <mxCell id="Oq-YT1y8umLdVVFn6O6l-66" style="edgeStyle=orthogonalEdgeStyle;rounded=0;orthogonalLoop=1;jettySize=auto;html=1;entryX=0.662;entryY=1.014;entryDx=0;entryDy=0;entryPerimeter=0;shape=flexArrow;" edge="1" parent="WIyWlLk6GJQsqaUBKTNV-1" source="Oq-YT1y8umLdVVFn6O6l-55" target="Oq-YT1y8umLdVVFn6O6l-63">
          <mxGeometry relative="1" as="geometry" />
        </mxCell>
        <mxCell id="Oq-YT1y8umLdVVFn6O6l-55" value="承办主管撤销承办人员的群签名" style="rounded=0;whiteSpace=wrap;html=1;fillColor=#fff2cc;strokeColor=#d6b656;" vertex="1" parent="WIyWlLk6GJQsqaUBKTNV-1">
          <mxGeometry x="270" y="1250" width="100" height="40" as="geometry" />
        </mxCell>
        <mxCell id="Oq-YT1y8umLdVVFn6O6l-60" style="edgeStyle=orthogonalEdgeStyle;rounded=0;orthogonalLoop=1;jettySize=auto;html=1;exitX=0.5;exitY=1;exitDx=0;exitDy=0;entryX=0.5;entryY=0;entryDx=0;entryDy=0;" edge="1" parent="WIyWlLk6GJQsqaUBKTNV-1" source="Oq-YT1y8umLdVVFn6O6l-57" target="Oq-YT1y8umLdVVFn6O6l-59">
          <mxGeometry relative="1" as="geometry" />
        </mxCell>
        <mxCell id="Oq-YT1y8umLdVVFn6O6l-67" style="edgeStyle=orthogonalEdgeStyle;rounded=0;orthogonalLoop=1;jettySize=auto;html=1;entryX=0.4;entryY=1;entryDx=0;entryDy=0;entryPerimeter=0;shape=flexArrow;" edge="1" parent="WIyWlLk6GJQsqaUBKTNV-1" source="Oq-YT1y8umLdVVFn6O6l-57" target="Oq-YT1y8umLdVVFn6O6l-63">
          <mxGeometry relative="1" as="geometry" />
        </mxCell>
        <mxCell id="Oq-YT1y8umLdVVFn6O6l-57" value="承办主管更新自己的签名" style="rounded=0;whiteSpace=wrap;html=1;fillColor=#fff2cc;strokeColor=#d6b656;" vertex="1" parent="WIyWlLk6GJQsqaUBKTNV-1">
          <mxGeometry x="270" y="1320" width="100" height="40" as="geometry" />
        </mxCell>
        <mxCell id="Oq-YT1y8umLdVVFn6O6l-59" value="结束" style="rounded=0;whiteSpace=wrap;html=1;fillColor=#f5f5f5;fontColor=#333333;strokeColor=#666666;" vertex="1" parent="WIyWlLk6GJQsqaUBKTNV-1">
          <mxGeometry x="280" y="1390" width="80" height="40" as="geometry" />
        </mxCell>
        <mxCell id="Oq-YT1y8umLdVVFn6O6l-61" value="是" style="text;html=1;strokeColor=none;fillColor=none;align=center;verticalAlign=middle;whiteSpace=wrap;rounded=0;" vertex="1" parent="WIyWlLk6GJQsqaUBKTNV-1">
          <mxGeometry x="300" y="1035" width="60" height="30" as="geometry" />
        </mxCell>
        <mxCell id="Oq-YT1y8umLdVVFn6O6l-62" value="否" style="text;html=1;strokeColor=none;fillColor=none;align=center;verticalAlign=middle;whiteSpace=wrap;rounded=0;" vertex="1" parent="WIyWlLk6GJQsqaUBKTNV-1">
          <mxGeometry x="300" y="1215" width="60" height="30" as="geometry" />
        </mxCell>
        <mxCell id="Oq-YT1y8umLdVVFn6O6l-63" value="承办单位服务器" style="ellipse;shape=cloud;whiteSpace=wrap;html=1;fillColor=#b1ddf0;strokeColor=#10739e;" vertex="1" parent="WIyWlLk6GJQsqaUBKTNV-1">
          <mxGeometry x="20" y="1090" width="150" height="60" as="geometry" />
        </mxCell>
      </root>
    </mxGraphModel>
  </diagram>
</mxfile>
